<svg xmlns="http://www.w3.org/2000/svg" width="197" height="100" viewBox="0 0 197 100"><style type="text/css"><![CDATA[
	.st0{fill-rule:evenodd;clip-rule:evenodd;}
	.st1{fill:#FFDC00;}
]]></style><path class="st1" d="M0 0v68.6c0 10.9.7 12.9 2.9 17.2 4.6 9.3 13.9 14.2 29.1 14.2h165v-48.5c0-15.5-2.7-26.7-8.7-35.7-4.7-6.9-13.7-15.8-30.4-15.8h-157.9"/><path d="M24.1 51.1c0 5 .3 5.9 1.3 7.8 2.1 4.2 6.3 6.5 13.3 6.5 5.4 0 9-1.1 11.8-3.5 2.7-2.4 3.4-4.6 3.4-11v-31.1h-5.3v30.6c0 4.2-.3 5.8-1.7 7.6-1.4 1.8-4.2 2.8-7.9 2.8-5 0-8.3-2-9.1-5.5-.3-1.2-.5-3.8-.5-6.9v-28.6h-5.3v31.3m36.1-26.8h12v40.3h5.2v-40.3h12.1l.4-4.5h-29.7v4.5M97.2 19.8h5.2v44.8h-5.2zm17.3 44.8h22.3l.7-4.5h-17.7v-40.3h-5.3v44.8"/><path class="st0" d="M138.6 42c0 7.6 1.8 13.7 5.4 17.8 3 3.5 7.3 5.7 12.7 5.7 4.6 0 8-1.3 11.4-4.3 4.6-4.2 6.5-9.6 6.5-18.2 0-7.2-1.2-12.4-4.1-16.6-2.2-3.2-6.3-7.3-14.1-7.3-11-.1-17.8 8.6-17.8 22.9zm27.8-12.6c1.5 3.1 2.2 7.6 2.2 14.2 0 7.4-1 11-3.3 13.8-2 2.5-4.7 3.9-8.4 3.9s-7.8-2-9.5-4.8c-1.8-3-2.9-8.9-2.9-15.6 0-5.6.7-9.4 2.3-12.4 1.7-3.2 5.4-5.2 9.6-5.2 5.2 0 8.5 2.8 10 6.1"/><path d="M27.4 75.7h-1.4l-2 8.9h1.6l1.8-8.9m6.5 3.5c0-.8-.5-1.3-1.5-1.3-.8 0-1.7.4-2.3 1.1.1-.2.2-.7.3-1l.2-.9c.2-.8.2-1.7.1-2.1l-1.4.5c.1.4.1 1-.1 1.9l-1.5 7.2h1.3l.9-4.2c.6-.7 1.4-1.2 1.9-1.2.4 0 .6.2.6.6 0 .1 0 .3-.1.5l-.9 4.4h1.4l1-4.6c.1-.5.1-.7.1-.9m5.9-1.2c-.2-.1-.3-.1-.5-.1-.6 0-1.4.5-1.9 1.2.1-.4 0-.9-.1-1.3l-1.3.5c.1.5.1.9-.1 1.8l-.9 4.4h1.4l.9-4.2c.6-.8 1.1-1.1 1.5-1.1.2 0 .3 0 .4.1l.6-1.3m10.7-2.3h-1.6l-2.8 5.1c-.4.7-.7 1.4-.9 1.8 0-.5 0-1.2-.1-1.7l-.5-5.2h-1.6l1.1 8.9h1.4l5-8.9"/><path class="st0" d="M55.2 80.2c0-1.4-.8-2.3-2.3-2.3-2.2 0-3.7 2-3.7 4.5 0 1.5.8 2.3 2.3 2.3 2.4.1 3.7-2.1 3.7-4.5zm-1.5 0c0 1.6-.7 3.5-1.9 3.5-.6 0-1-.3-1-1.1 0-1.5.7-3.5 2-3.5.5-.1.9.2.9 1.1"/><path d="M61 78c-.2-.1-.3-.1-.5-.1-.6 0-1.4.5-1.9 1.2.1-.4 0-.9-.1-1.3l-1.3.5c.1.5.1.9-.1 1.8l-.9 4.4h1.4l.9-4.2c.6-.8 1.1-1.1 1.5-1.1.2 0 .3 0 .5.1l.5-1.3m4 .1h-1.6c.1-.6.4-1.4.5-1.9l-1.5.3c-.2.5-.3 1-.4 1.6h-.7l-.2 1h.7l-.8 3.7v.9c0 .7.5 1.1 1.4 1.1.4 0 .9-.1 1.4-.3v-.9c-.2.1-.4.1-.7.1-.4 0-.6-.1-.6-.5 0-.2 0-.4.1-.6l.7-3.5h1.2l.5-1"/><path class="st0" d="M70.5 79.7c0-1.2-.8-1.7-2.1-1.7-.8 0-1.6.3-2.2.9-.9.9-1.5 2.3-1.5 3.6 0 1.5.9 2.4 2.3 2.4 1.1 0 1.9-.3 2.7-.9l-.4-1c-.6.5-1.2.7-1.8.7-.7 0-1.2-.4-1.2-1.2 0-.2.1-.6.1-.7.1 0 .4.1.8.1 1.3 0 2.2-.3 2.8-.8.3-.4.5-.9.5-1.4zm-1.5.1c0 .3-.1.5-.3.6-.3.3-.9.4-1.6.4h-.6c.3-1.2.9-1.8 1.7-1.8.6 0 .8.3.8.8m5.4-3.6c0-.5-.4-.9-.9-.9s-1 .4-1 1c0 .5.4.9.9.9.6-.1 1-.5 1-1zm-.6 1.7l-1.5.2-1.4 6.4h1.4l1.5-6.6"/><path d="M77.5 75l-1.5.5c.1.4.1 1.1-.1 1.9l-1.1 5.4c-.1.4-.1.7-.1.9 0 .6.4 1 1.1 1 .3 0 .7-.1 1-.2l-.1-.9h-.2c-.2 0-.3-.1-.3-.3 0-.2 0-.4.2-.9l1.1-5.3c0-.7.1-1.7 0-2.1m9.5 4.2c0-.8-.5-1.3-1.5-1.3-.8 0-1.7.4-2.3 1.1.1-.2.2-.7.3-1l.2-.9c.2-.8.2-1.7.1-2.1l-1.4.5c.1.4.1 1-.1 1.9l-1.5 7.2h1.4l.9-4.2c.6-.7 1.4-1.2 1.9-1.2.4 0 .6.2.6.6 0 .1 0 .3-.1.5l-.9 4.4h1.4l1-4.6v-.9"/><path class="st0" d="M94 78.4c-.5-.3-1.3-.5-2-.5-1 0-1.9.3-2.6 1.1-.8.9-1.4 2.3-1.4 3.7 0 1.4.7 2.1 1.7 2.1.8 0 1.5-.4 2-1 0 .4.1.8.5 1.1l1.2-.9c-.3-.3-.4-.7-.2-1.5l.5-2.6c0-.5.2-1.1.3-1.5zm-1.6.8l-.7 3.2c-.3.7-1 1.3-1.5 1.3s-.7-.3-.7-1c0-.9.3-2.2.9-2.9.5-.6.9-.7 1.5-.7.1 0 .4 0 .5.1"/><path d="M99 78.1h-1.6c.1-.6.3-1.4.5-1.9l-1.5.3c-.2.5-.3 1-.4 1.6h-.7l-.2 1h.7l-.8 3.7v.9c0 .7.5 1.1 1.4 1.1.5 0 .9-.1 1.4-.3v-.9c-.2.1-.4.1-.7.1-.4 0-.6-.1-.6-.5 0-.2 0-.4.1-.6l.7-3.5h1.2l.5-1"/><path class="st0" d="M107.3 79.7c0-1.2-.8-1.7-2.1-1.7-.8 0-1.6.3-2.2.9-.9.9-1.5 2.3-1.5 3.6 0 1.5.9 2.4 2.3 2.4 1.1 0 1.9-.3 2.7-.9l-.4-.9c-.6.5-1.2.7-1.8.7-.7 0-1.2-.4-1.2-1.2 0-.2.1-.6.1-.7.1 0 .4.1.8.1 1.3 0 2.2-.3 2.8-.8.3-.5.5-1 .5-1.5zm-1.4.1c0 .3-.1.5-.3.6-.3.3-.8.4-1.6.4h-.6c.3-1.2.9-1.8 1.7-1.8.5 0 .8.3.8.8m5.3-3.6c0-.5-.4-.9-.9-.9s-1 .4-1 1c0 .5.4.9.9.9.6-.1 1-.5 1-1zm-.6 1.7l-1.5.2-1.4 6.4h1.4l1.5-6.6"/><path d="M117.3 79.2c0-.8-.5-1.3-1.3-1.3-.9 0-1.7.4-2.3 1.2.1-.5 0-.9-.1-1.2l-1.3.5c.1.5.1.9 0 1.7l-1 4.5h1.4l.9-4.2c.7-.9 1.3-1.2 1.8-1.2.3 0 .5.1.5.5 0 .1 0 .3-.1.6l-.9 4.3h1.4l1-4.7v-.7"/><path class="st0" d="M124.1 79.7c0-1.2-.8-1.7-2.1-1.7-.8 0-1.6.3-2.2.9-.9.9-1.5 2.3-1.5 3.6 0 1.5.9 2.4 2.3 2.4 1.1 0 1.9-.3 2.7-.9l-.4-.9c-.6.5-1.2.7-1.8.7-.7 0-1.2-.4-1.2-1.2 0-.2.1-.6.1-.7.1 0 .4.1.8.1 1.3 0 2.2-.3 2.8-.8.3-.5.5-1 .5-1.5zm-1.5.1c0 .3-.1.5-.3.6-.3.3-.9.4-1.6.4h-.6c.3-1.2.9-1.8 1.7-1.8.6 0 .8.3.8.8"/><path d="M130.7 79.2c0-.8-.5-1.3-1.3-1.3-.9 0-1.7.4-2.3 1.2.1-.5 0-.9-.1-1.2l-1.3.5c.1.5.1.9 0 1.7l-1 4.5h1.4l.9-4.2c.7-.9 1.3-1.2 1.8-1.2.3 0 .5.1.5.5 0 .1 0 .3-.1.6l-.9 4.3h1.4l1-4.7v-.7m11.8-3.5h-1.4l-.8 4.2c-.2.9-.4 2.2-.4 2.6 0-.4-.2-1.3-.5-2.3l-1.3-4.5h-1.6l-1.9 8.9h1.5l.9-4.4c.2-.9.4-2.1.4-2.5 0 .3.3 1.5.6 2.6l1.2 4.3h1.5l1.8-8.9"/><path class="st0" d="M148.7 78.4c-.5-.3-1.3-.5-2-.5-1 0-1.9.3-2.6 1.1-.8.9-1.4 2.3-1.4 3.7 0 1.4.7 2.1 1.7 2.1.8 0 1.5-.4 2-1 0 .4.1.8.5 1.1l1.1-.9c-.3-.3-.4-.7-.2-1.5l.5-2.6c.1-.5.3-1.1.4-1.5zm-1.6.8l-.7 3.2c-.3.7-.9 1.3-1.5 1.3-.5 0-.7-.3-.7-1 0-.9.3-2.2.8-2.9.5-.6.9-.7 1.5-.7.3 0 .5 0 .6.1"/><path d="M158.7 79.2c0-.8-.5-1.3-1.3-1.3-.7 0-1.5.3-2.3 1.2 0-.8-.4-1.1-1.2-1.1-.7 0-1.5.3-2.2 1.1.1-.4 0-.9-.1-1.2l-1.3.5c.1.4.1 1 0 1.6l-1 4.5h1.4l.9-4.2c.6-.8 1.2-1.2 1.7-1.2.3 0 .5.2.5.4 0 .1-.1.4-.1.7l-.9 4.3h1.4l.9-4.3c.5-.7 1.2-1.2 1.6-1.2.4 0 .5.1.5.5 0 .2 0 .4-.1.6l-.9 4.4h1.4l1-4.5c.1-.2.1-.5.1-.8"/><path class="st0" d="M165.6 79.7c0-1.2-.8-1.7-2.1-1.7-.8 0-1.6.3-2.2.9-.9.9-1.5 2.3-1.5 3.6 0 1.5.9 2.4 2.3 2.4 1.1 0 1.9-.3 2.7-.9l-.4-.9c-.6.5-1.2.7-1.8.7-.7 0-1.2-.4-1.2-1.2 0-.2.1-.6.1-.7.1 0 .4.1.8.1 1.3 0 2.2-.3 2.8-.8.3-.5.5-1 .5-1.5zm-1.4.1c0 .3-.1.5-.3.6-.3.3-.9.4-1.6.4h-.6c.3-1.2.9-1.8 1.7-1.8.6 0 .8.3.8.8"/><path d="M172.3 79.2c0-.8-.5-1.3-1.3-1.3-.9 0-1.7.4-2.3 1.2.1-.5 0-.9-.1-1.2l-1.3.5c.1.5.1.9 0 1.7l-1 4.5h1.4l.9-4.2c.7-.9 1.3-1.2 1.8-1.2.4 0 .5.1.5.5 0 .1 0 .3-.1.6l-.9 4.3h1.4l1-4.7c-.1-.2 0-.5 0-.7m2.9 4.5c0-.6-.5-1-1-1-.6 0-1 .5-1 1 0 .6.4 1 1 1 .5.1 1-.4 1-1"/></svg>